#!OML:ASF F:\VICON\USERDATA\INSTALL\rory3\rory3.ASF
:FULLY-SPECIFIED
:DEGREES
27
root 0.5056171332836399 18.015595192732462 -8.023967453750895 -0.6998902824303077 -0.8003935858775937 -7.217645860817221
lfemur -24.470013598588917 -5.0675710758032775 -9.262089239725022
ltibia 18.40723585893796
lfoot -8.274147862102135 2.3781879772396968
ltoes -3.427379704522836
rfemur 6.528007276035931 4.9817995314630235 35.49919049586377
rtibia 24.39009839178069
rfoot -18.152594606456027 -9.712518001117466
rtoes 6.32202800297056
lowerback 10.7264027533101 1.9561279985034765 6.213155863186571
upperback -0.23135017489420628 3.722477322250299 1.9763127605353557
thorax -5.606466767202576 1.8688937198724929 -1.9989580245736913
lowerneck -16.37435729834153 -3.5844082202680814 -2.067187116977488
upperneck 21.503271566143383 -5.477547528831324 1.0358115263846264
head 9.630826196206144 -2.3069533132841333 -0.14604698349140505
lclavicle 2.9498776444752516e-16 4.3055770330190595e-17
lhumerus -34.08722442134781 11.866732849090992 78.15968025270365
lradius 25.037168313550286
lwrist 6.535729834302925
lhand -29.341885940678306 19.120460815004087
lfingers 7.125020000000001
lthumb -2.745528897627544 48.8451714001688
rclavicle 2.9733669832717156e-16 5.4038345319803017e-17
rhumerus -20.078719172861607 -11.170571832497295 -82.45426825092721
rradius 36.5615027479971
rwrist -1.6270552628497792
rhand -18.807728833039654 23.171901325202487
rfingers 7.125020000000001
rthumb 7.341458006888595 -6.903706428986535
28
root 0.5896479167767944 17.96849639362615 -7.165703846738367 -0.8782533843517333 -0.5904080102618586 -6.772502452301057
lfemur -23.205678519458562 -5.3928401500322405 -10.44039331599885
ltibia 15.910086849651048
lfoot -7.513468703888225 1.2983722169611598
ltoes -2.7152678041985174
rfemur 7.61786938957775 4.549652713377644 34.36774775929615
rtibia 26.138444353975476
rfoot -17.16786367308917 -8.688531205298567
rtoes 2.7817703807829774
lowerback 10.589000641710756 2.084979908997244 6.015553095815683
upperback -0.32579606490938573 3.748169783658499 1.8377939977979958
thorax -5.637291579768215 1.9040895620292013 -1.9388283534868547
lowerneck -16.268829640647652 -3.5573791036708653 -2.270866074606203
upperneck 21.538758481708513 -5.36578715097599 0.9702852093982811
head 9.570420923018588 -2.241784369756707 -0.08399672534815533
lclavicle 2.949765589100743e-16 4.308318495096858e-17
lhumerus -34.15550452819342 12.38284897911009 77.91913205320708
lradius 24.9294532711185
lwrist 6.397868182143625
lhand -29.121410481094042 19.322436425135816
lfingers 7.125020000000001
lthumb -2.531893034325446 49.00968780944734
rclavicle 2.973182109043722e-16 5.4025163015585506e-17
rhumerus -19.93483365191944 -12.012791464292114 -82.38597274796659
rradius 35.94102401261148
rwrist -1.511363409638181
rhand -18.780004478833344 23.315960443159117
rfingers 7.125020000000001
rthumb 7.282532302545029 -6.9324720620402696
29
root 0.687527718421272 17.950879736853995 -6.037070401358594 -1.3493809710697233 -0.1557619456015735 -6.098087079650574
lfemur -23.049185805340564 -3.6619462604943904 -12.942934075775405
ltibia 19.16229778536232
lfoot -5.872082952736381 -0.6648876566208104
ltoes -1.9264200204897604
rfemur 8.049190255610858 4.013268714895933 33.28534979934322
rtibia 29.669889479181915
rfoot -14.766309940974924 -7.561114102418257
rtoes -0.013310726641964088
lowerback 10.486382789983837 2.1471799907025395 5.684851856282687
upperback -0.3970992523406742 3.7421761146519597 1.635276999487722
thorax -5.656979556622074 1.9119452629652314 -1.8611596832513915
lowerneck -16.100475376707703 -3.6042067070906065 -2.4696777594833623
upperneck 21.587027959103366 -5.355629474764257 1.087623080736023
head 9.591969992461024 -2.2697063640954096 -0.03005203822718533
lclavicle 2.949680053851755e-16 4.301266350770409e-17
lhumerus -34.227385504094656 12.639344588079227 77.84282082759053
lradius 24.74613100757608
lwrist 6.883655056883451
lhand -29.114563500884405 18.9990403487864
lfingers 7.125020000000001
lthumb -2.473150990386379 48.71900087987288
rclavicle 2.9724361485826533e-16 5.3974449281437693e-17
rhumerus -20.41996554794214 -13.261761087472632 -82.0864105752522
rradius 34.62649231749447
rwrist -0.8012218160850133
rhand -18.700354190062626 23.476570220422694
rfingers 7.125020000000001
rthumb 7.481112845180749 -6.272460253148466
30
root 0.7886982081475349 17.97837340021024 -5.075726071430955 -1.9912511082725306 0.3203317394904137 -5.086308465057531
lfemur -22.334436419915395 -3.4004616619341625 -14.8196141512456
ltibia 22.543505780103136
lfoot -4.874260028007845 -3.504266199566792
ltoes -2.0100110298695952
rfemur 6.902414338710733 2.7054970670250453 31.055368041207927
rtibia 35.437399487109715
rfoot -10.543608466057819 -5.973980626272647
rtoes -2.0605414731867846
lowerback 10.327587561384371 2.168330787937691 4.957310850855107
upperback -0.3434331513441847 3.7364655834809763 1.4608011698643975
thorax -5.611609290987003 1.8777925284645451 -1.6275444969003783
lowerneck -16.16801146253278 -3.6251029361201037 -2.571068881264756
upperneck 21.906753709400533 -5.325492606204634 1.1972805139166982
head 9.726904557148105 -2.30450132992234 0.01302250017715692
lclavicle 2.9494533624572944e-16 4.292618265923209e-17
lhumerus -34.374836559091925 12.192229547896954 78.16734887132631
lradius 24.545200438939354
lwrist 7.431513064693016
lhand -29.007043532444463 19.104143765581117
lfingers 7.125020000000001
lthumb -2.313334415279161 48.96329700363669
rclavicle 2.9724170324213486e-16 5.397195012380127e-17
rhumerus -22.059843428428486 -14.971663128774294 -81.52888139676699
rradius 32.91856067637232
rwrist -0.13579131966158364
rhand -18.5223014622627 22.776351117956196
rfingers 7.125020000000001
rthumb 7.836513675202863 -7.217470095854621
31
root 0.879418671363768 18.02630395777608 -4.0848257080600305 -2.6822816019732887 0.6972203834350053 -4.0272699641598395
lfemur -20.748457954842877 -3.396299150170408 -16.731049838978016
ltibia 24.629298261835174
lfoot -1.5162273466083365 -6.328767709383996
ltoes -3.7636151043384416
rfemur 3.786540308856237 1.1175562221371893 28.801191047583846
rtibia 43.7031199722752
rfoot -4.259566655843117 -4.414756825418164
rtoes -3.6569374254175226
lowerback 10.301311616860062 2.153154801637482 4.124861540828546
upperback -0.2390716514968053 3.552209713230744 1.226780775843879
thorax -5.626413430617203 1.761743774637211 -1.3166982432458856
lowerneck -16.344469810103377 -3.6263875417845792 -2.689636973080763
upperneck 22.265021515182788 -5.283678650925376 1.218989105234355
head 9.802548995773874 -2.3365054174197892 0.0518895953143709
lclavicle 2.94880609096856e-16 4.29256877465126e-17
lhumerus -34.441157278265784 11.275148951745589 78.65733563949988
lradius 24.39761952883142
lwrist 7.8777939149375396
lhand -29.235495340258762 18.295646344042076
lfingers 7.125020000000001
lthumb -2.5138187629981017 48.35211911416555
rclavicle 2.9725574705861e-16 5.398260319681068e-17
rhumerus -24.205442586793154 -16.707395692945827 -80.84799784505812
rradius 30.913412781861403
rwrist 0.5490169965336
rhand -18.655659848682394 22.540857554461866
rfingers 7.125020000000001
rthumb 7.7773543578174005 -7.418048182250202
32
root 0.9625634837895489 18.070791832372596 -2.7468196751916683 -3.2398171156529307 0.4967372024474297 -2.871310482742362
lfemur -18.622425082381465 -2.5980381942957353 -18.2511552086652
ltibia 26.829639537622786
lfoot -1.6579398455823062 -6.017974089404335
ltoes -5.15172805546
rfemur -1.0920060117589099 -0.061261118009758864 26.657825709008968
rtibia 53.618809145022055
rfoot 2.88621761481303 -3.8168444869741514
rtoes -2.6401393158579367
lowerback 10.42033253762757 2.1525315010049044 3.275836355146133
upperback -0.14708575317342945 3.2330644404579143 0.9723303972619465
thorax -5.740024073514999 1.6657645689985947 -1.0574377212493304
lowerneck -16.46745205489304 -3.5615726589006833 -2.7679070382422997
upperneck 22.4215827292322 -5.277640100071593 1.2827823482691765
head 9.895860530877842 -2.3536125243865307 0.09463974611403228
lclavicle 2.948757690890857e-16 4.293995060718701e-17
lhumerus -34.165002057806504 10.201927470265824 79.2039954708408
lradius 24.346518708712065
lwrist 7.830239870763642
lhand -29.23148913066713 17.527963188719706
lfingers 7.125020000000001
lthumb -2.5388914941197416 47.71912144308162
rclavicle 2.972452307357687e-16 5.397463736616422e-17
rhumerus -25.950418659757666 -17.686749233677105 -80.34686306493764
rradius 28.938864245848023
rwrist 1.113545546767381
rhand -18.619467477897356 22.773013020117165
rfingers 7.125020000000001
rthumb 7.682363414878494 -7.16513033671997
